# xmcd
# 
# Track frame offsets:
#     150
#     13317
#     30747
#     47390
#     69860
#     95412
#     118182
#     146437
#     164825
#     183595
#     199235
#     221490
#     247742
# 
# Disc length: 3607
# 
# Revision: 14
# Processed by: cddbd v1.5.2PL0 Copyright (c) Steve Scherf et al.
# Submitted via: fre:ac v1.0.27
# 
DISCID=b70e150d
DTITLE=Midnight Oil - Scream in Blue: Live
DYEAR=1992
DGENRE=Guitar Rock
TTITLE0=Scream in Blue [Live, Horden Pavillion, Sydney, 1984]
TTITLE1=Read About It [Live, Brisbane Boondall Centre, Brisbane, 1990]
TTITLE2=Dreamworld [Live, Brisbane Boondall Centre, Brisbane, 1990]
TTITLE3=Brave Faces [Live, Capitol Theatre, Sydney, 1982]
TTITLE4=Only the Strong [Live, Capitol Theatre, Sydney, 1982]
TTITLE5=Stars of Warburton [Live, Brisbane Boondall Centre, Brisbane, 1990]
TTITLE6=Progress  [Live, N.Y. N.Y. 6th Ave, New York, 1990]
TTITLE7=Beds are Burning [Live, Our Common Future, Darlinghurst, 1989]
TTITLE8=Sell My Soul [Live, Brisbane Boondall Centre, Brisbane, 1990]
TTITLE9=Sometimes [Live, Our Common Future, Darlinghurst, 1989]
TTITLE10=Hercules [Live, Brisbane Boondall Centre, Brisbane, 1990]
TTITLE11=Powderworks [Live, Capitol Theatre, Sydney, 1982]
TTITLE12=Burnie [Acoustic recording, bonus track]
EXTD=
EXTT0=
EXTT1=
EXTT2=
EXTT3=
EXTT4=
EXTT5=
EXTT6=
EXTT7=
EXTT8=
EXTT9=
EXTT10=
EXTT11=
EXTT12=
PLAYORDER=
